<svg width="370" height="125" viewBox="0 0 370 125" fill="none" xmlns="http://www.w3.org/2000/svg">
<path d="M15.7615 68.5483L30.7064 39.2216L43.2972 68.5483H15.7615ZM19.8538 30.9984L28.6096 34.3377L29.5468 36.521L10.1733 74.8196L0.399902 93.9983H2.79237L14.6688 70.6929H44.2177L54.2237 93.9983H65.269L36.3415 30.9988L19.8538 30.9984Z" fill="black"/>
<path d="M187.772 68.55L202.717 39.2233L215.308 68.55H187.772ZM191.865 31.0001L200.62 34.3394L201.558 36.5227L182.184 74.8213L172.411 94H174.803L186.68 70.6946H216.228L226.234 94H237.28L208.352 31.0005L191.865 31.0001Z" fill="black"/>
<path d="M85.6562 76.2192L62.6129 31.0001H60.2205L84.5623 78.7674L79.4562 90.6606L70.8045 94H87.1877L116.115 31.0001H105.07L85.6562 76.2192Z" fill="black"/>
<path d="M175.383 51.3786C175.128 60.9756 167.173 68.55 157.646 68.55H138.131L138.021 33.1447H157.773C163.422 33.1447 168.792 35.8075 172.091 40.4286C174.171 43.3414 175.389 46.9119 175.389 50.869C175.389 51.0394 175.387 51.2094 175.383 51.3786ZM183.13 50.6681C183.023 39.763 174.071 31.0437 163.249 31.0437L121.633 31L130.283 34.3394V93.9563H138.209L138.137 70.6946H163.811V70.6903C174.579 70.4985 183.238 61.5901 183.13 50.6681Z" fill="black"/>
</svg>
