<?xml version="1.0" encoding="UTF-8"?>
<svg id="Layer_1" data-name="Layer 1" xmlns="http://www.w3.org/2000/svg" viewBox="0 0 950 145.23">
  <path d="M919.11,6.81c-8.9,0-15.95,2.86-21.18,8.6-5.22,5.74-7.83,13.83-7.83,24.27v3.87c0,10.45,2.62,18.54,7.83,24.27,5.22,5.73,12.28,8.6,21.18,8.6h9.67V6.81h-9.67ZM533.73,105.57h43.54l-21.28-75.56h-1l-21.27,75.56ZM177.03,105.57h43.54l-21.28-75.56h-1l-21.27,75.56ZM837.24,6.8h-50.29v60.93l40.91-.03v3.89h-40.91v66.85h50.29v3.87h-71.55V2.94h71.55v3.86ZM510.04,6.8h-50.78l-.05,135.52h-21.1V2.94h71.92v3.86ZM321.13,67.73h40.62l-.02-64.79h21.34v139.38h-21.34l.02-70.72h-40.62l.04,70.72h-21.28V2.94h21.28l-.04,64.79ZM20.5,2.94l37.71,108.43h.97L96.89,2.94h19.2v139.34h-21.14V23.25h-.97l-41.58,119.07h-5.81L5.02,23.25h-.97v119.03H.17L0,2.94h20.5ZM570.05,2.97l40.26,139.38h-22.24l-8.81-29.32-1.07-3.56h-45.45l-3.9,12.97-5.99,19.88h-3.79l11.43-38.52,28.8-100.86,10.76.03ZM213.35,2.97l40.26,139.38h-22.24l-8.81-29.32-1.07-3.56h-45.45l-3.9,12.97-5.99,19.88h-3.79l11.43-38.52L202.59,2.94l10.76.03ZM950,2.98v139.38h-21.25l.07-62.01h-17.41l-23.21,62.01h-22.95l25.82-67.81c-6.43-2.59-12-6.95-16.06-12.57-4.13-5.68-6.19-12.44-6.19-20.31-.07-6.98,1.95-13.81,5.8-19.63,3.87-5.9,9.61-10.56,17.21-13.97,7.6-3.41,16.7-5.12,27.27-5.12l30.89.04ZM678.89.01c7.42-.16,14.77,1.43,21.47,4.64,5.83,2.77,10.76,7.13,14.22,12.57,3.28,5.28,4.99,11.39,4.93,17.6,0,9.03-3.16,16.09-9.48,21.18-6.49,5.17-14.23,8.53-22.44,9.76v1c9.67,1.54,17.73,5.35,24.18,11.41,6.44,6.06,9.66,18.18,9.65,28.37.12,7.04-1.73,13.97-5.32,20.02-3.67,5.98-9.02,10.76-15.38,13.73-6.71,3.29-14.64,4.93-23.79,4.93-6.6.09-13.11-1.58-18.85-4.84-5.54-3.14-10.09-7.76-13.15-13.34-3.24-5.99-4.87-12.72-4.74-19.53v-1.12h3.86v1.12c-.1,5.9,1.27,11.73,3.99,16.97,2.46,4.77,6.13,8.81,10.64,11.71,4.29,2.79,9.3,4.27,14.41,4.25,8.54,0,15.19-2.8,19.96-8.41,4.77-5.61,7.16-14.02,7.16-25.24v-.39c0-11.22-2.39-23.62-7.16-29.23-4.8-5.61-11.46-8.41-19.96-8.41h-9.67v-3.86h11.6c7.12,0,12.77-2.55,16.97-7.64,4.19-5.09,6.29-12.47,6.29-22.15v-.39c.02-9.79-2.08-17.2-6.29-22.23-4.21-5.03-9.87-7.55-16.97-7.55-4.97-.05-9.86,1.29-14.11,3.86-4.29,2.61-7.79,6.32-10.16,10.74-1.54,2.8-2.61,5.84-3.19,8.98h-3.68c.73-3.13,1.77-6.18,3.1-9.11,2.74-5.73,7.03-10.57,12.39-13.97,5.83-3.7,12.63-5.58,19.53-5.42Z"/>
</svg>