<svg width="603" height="220" viewBox="0 0 603 220" fill="none" xmlns="http://www.w3.org/2000/svg">
<path d="M39.0692 155.769L77.0785 81.7538L109.1 155.769H39.0692ZM49.4772 60.9999L71.7456 69.4278L74.1291 74.9378L24.8567 171.596L0 220H6.08476L36.2901 161.181H111.442L136.89 220H164.981L91.4101 61.0009L49.4772 60.9999Z" fill="#8C241F"/>
<path d="M476.544 155.769L514.553 81.7539L546.575 155.769H476.544ZM486.952 61L509.221 69.4279L511.604 74.9379L462.332 171.596L437.475 220H443.56L473.765 161.181H548.917L574.365 220H602.456L528.885 61.001L486.952 61Z" fill="#8C241F"/>
<path d="M216.832 175.125L158.226 61.0002H152.141L214.05 181.556L201.063 211.572L179.06 220H220.727L294.298 61.0002H266.207L216.832 175.125Z" fill="#8C241F"/>
<path d="M445.034 112.432C444.386 136.653 424.154 155.769 399.924 155.769H350.291L350.013 66.4128H400.246C414.615 66.4128 428.27 73.1333 436.663 84.796C441.952 92.1473 445.051 101.159 445.051 111.146C445.051 111.576 445.046 112.005 445.034 112.432ZM464.738 110.639C464.465 83.1161 441.699 61.1104 414.174 61.1104L308.333 61.0002L330.333 69.4281V219.89H350.49L350.307 161.182H415.604V161.171C442.991 160.687 465.011 138.204 464.738 110.639Z" fill="#8C241F"/>
<path d="M36.808 26.352L37.128 10.736L37.928 10.8L37.608 26.352C37.5867 27.4613 37.7787 28.2827 38.184 28.816C38.6107 29.3493 39.3147 29.616 40.296 29.616C40.36 29.616 40.392 29.68 40.392 29.808C40.392 29.936 40.36 30 40.296 30C39.8267 30 39.3467 29.9893 38.856 29.968C38.3653 29.9467 37.8107 29.936 37.192 29.936C36.616 29.936 36.072 29.9467 35.56 29.968C35.048 29.9893 34.568 30 34.12 30C34.0773 30 34.056 29.936 34.056 29.808C34.056 29.68 34.0773 29.616 34.12 29.616C35.016 29.616 35.6773 29.3493 36.104 28.816C36.552 28.2827 36.7867 27.4613 36.808 26.352ZM59.208 29.616C59.2507 29.616 59.272 29.68 59.272 29.808C59.272 29.936 59.2507 30 59.208 30C58.6747 30 58.0773 29.9893 57.416 29.968C56.7547 29.9467 56.0507 29.936 55.304 29.936C54.6 29.936 53.9387 29.9467 53.32 29.968C52.7013 29.9893 52.1467 30 51.656 30C51.592 30 51.56 29.936 51.56 29.808C51.56 29.68 51.592 29.616 51.656 29.616C52.7013 29.616 53.3733 29.4773 53.672 29.2C53.9707 28.9227 54.088 28.3253 54.024 27.408L53.384 12.336L54.632 10.544L46.344 29.776C46.3227 29.8613 46.2373 29.904 46.088 29.904C45.96 29.904 45.8747 29.8613 45.832 29.776L37.48 12.656C36.7333 11.1413 35.688 10.384 34.344 10.384C34.3013 10.384 34.28 10.32 34.28 10.192C34.28 10.064 34.3013 10 34.344 10C34.728 10 35.1227 10.0107 35.528 10.032C35.9547 10.0533 36.3173 10.064 36.616 10.064C37.0213 10.064 37.384 10.0533 37.704 10.032C38.0453 10.0107 38.3013 10 38.472 10C38.7707 10 39.0053 10.1067 39.176 10.32C39.3467 10.512 39.6027 10.96 39.944 11.664L47.208 26.416L46.024 28.464L53.736 10.8C53.8427 10.544 53.9707 10.352 54.12 10.224C54.2907 10.0747 54.4827 10 54.696 10C54.8453 10 55.0267 10.0107 55.24 10.032C55.4747 10.0533 55.7413 10.064 56.04 10.064C56.6373 10.064 57.1387 10.0533 57.544 10.032C57.9493 10.0107 58.3653 10 58.792 10C58.8347 10 58.856 10.064 58.856 10.192C58.856 10.32 58.8347 10.384 58.792 10.384C57.768 10.384 57.0213 10.5547 56.552 10.896C56.0827 11.216 55.8587 11.8133 55.88 12.688L56.552 27.408C56.5947 28.0267 56.68 28.496 56.808 28.816C56.936 29.136 57.1813 29.3493 57.544 29.456C57.9067 29.5627 58.4613 29.616 59.208 29.616ZM71.6495 30.384C70.1135 30.384 68.7162 30.1173 67.4575 29.584C66.2202 29.0293 65.1535 28.272 64.2575 27.312C63.3828 26.352 62.7002 25.2533 62.2095 24.016C61.7402 22.7573 61.5055 21.424 61.5055 20.016C61.5055 18.288 61.8362 16.7733 62.4975 15.472C63.1802 14.1707 64.0762 13.0933 65.1855 12.24C66.2948 11.3653 67.5108 10.7147 68.8335 10.288C70.1562 9.86133 71.4682 9.648 72.7695 9.648C74.3482 9.648 75.7562 9.936 76.9935 10.512C78.2522 11.0667 79.3188 11.824 80.1935 12.784C81.0682 13.744 81.7295 14.832 82.1775 16.048C82.6468 17.264 82.8815 18.512 82.8815 19.792C82.8815 21.2853 82.5828 22.672 81.9855 23.952C81.3882 25.232 80.5668 26.352 79.5215 27.312C78.4975 28.272 77.3028 29.0293 75.9375 29.584C74.5935 30.1173 73.1642 30.384 71.6495 30.384ZM72.7695 29.68C74.1135 29.68 75.3295 29.3387 76.4175 28.656C77.5268 27.952 78.3908 26.9387 79.0095 25.616C79.6495 24.272 79.9695 22.6293 79.9695 20.688C79.9695 18.704 79.6175 16.944 78.9135 15.408C78.2308 13.8507 77.2495 12.6347 75.9695 11.76C74.7108 10.864 73.2068 10.416 71.4575 10.416C69.2175 10.416 67.4788 11.1733 66.2415 12.688C65.0255 14.2027 64.4175 16.272 64.4175 18.896C64.4175 20.4107 64.6095 21.8293 64.9935 23.152C65.3988 24.4533 65.9748 25.5947 66.7215 26.576C67.4682 27.5573 68.3535 28.3253 69.3775 28.88C70.4015 29.4133 71.5322 29.68 72.7695 29.68ZM102.239 29.616C102.281 29.616 102.303 29.68 102.303 29.808C102.303 29.936 102.281 30 102.239 30C101.705 30 101.097 29.9893 100.415 29.968C99.7532 29.9467 99.0385 29.936 98.2705 29.936C97.5238 29.936 96.8198 29.9467 96.1585 29.968C95.5185 29.9893 94.9318 30 94.3985 30C94.3558 30 94.3345 29.936 94.3345 29.808C94.3345 29.68 94.3558 29.616 94.3985 29.616C95.1665 29.616 95.7318 29.5627 96.0945 29.456C96.4572 29.3493 96.6918 29.136 96.7985 28.816C96.9265 28.496 96.9905 28.0267 96.9905 27.408V19.472L97.7905 19.632C97.2145 19.632 96.6918 19.6853 96.2225 19.792C95.7532 19.8987 95.2945 20.1227 94.8465 20.464C94.4198 20.784 93.9612 21.2747 93.4705 21.936C92.9798 22.5973 92.4145 23.4933 91.7745 24.624C90.9638 26.032 90.3132 27.1093 89.8225 27.856C89.3318 28.6027 88.9478 29.1253 88.6705 29.424C88.4145 29.7227 88.2012 29.8933 88.0305 29.936C87.8812 29.9787 87.7105 30 87.5185 30H83.9345C83.8705 30 83.8385 29.936 83.8385 29.808C83.8385 29.68 83.8705 29.616 83.9345 29.616C84.6812 29.5947 85.3212 29.3813 85.8545 28.976C86.4092 28.5493 86.9532 27.92 87.4865 27.088C88.0412 26.256 88.6918 25.2213 89.4385 23.984C90.0998 22.832 90.7292 21.9467 91.3265 21.328C91.9238 20.7093 92.5638 20.2613 93.2465 19.984C93.9292 19.7067 94.6865 19.536 95.5185 19.472L95.7425 19.696C93.3532 19.6747 91.5398 19.2267 90.3025 18.352C89.0865 17.4773 88.4785 16.304 88.4785 14.832C88.4785 13.8507 88.7452 12.9973 89.2785 12.272C89.8118 11.5253 90.5372 10.9493 91.4545 10.544C92.3718 10.1173 93.4172 9.904 94.5905 9.904C95.0385 9.904 95.6252 9.936 96.3505 10C97.0972 10.064 97.7372 10.096 98.2705 10.096C99.0385 10.096 99.7532 10.0853 100.415 10.064C101.076 10.0213 101.684 10 102.239 10C102.281 10 102.303 10.064 102.303 10.192C102.303 10.32 102.281 10.384 102.239 10.384C101.449 10.384 100.863 10.448 100.479 10.576C100.095 10.6827 99.8385 10.896 99.7105 11.216C99.5825 11.5147 99.5185 11.9733 99.5185 12.592V27.408C99.5185 28.0267 99.5825 28.496 99.7105 28.816C99.8385 29.136 100.095 29.3493 100.479 29.456C100.863 29.5627 101.449 29.616 102.239 29.616ZM91.1025 14.032C91.1025 15.5253 91.5078 16.752 92.3185 17.712C93.1505 18.6507 94.3878 19.12 96.0305 19.12C96.3292 19.12 96.6492 19.1093 96.9905 19.088C97.3532 19.0453 97.6412 18.992 97.8545 18.928L96.9905 19.216V12.656C96.9905 12.0373 96.8625 11.5573 96.6065 11.216C96.3718 10.8747 96.0732 10.64 95.7105 10.512C95.3478 10.384 94.9532 10.32 94.5265 10.32C92.2438 10.32 91.1025 11.5573 91.1025 14.032ZM133.564 29.616C133.606 29.616 133.628 29.68 133.628 29.808C133.628 29.936 133.606 30 133.564 30C133.03 30 132.433 29.9893 131.772 29.968C131.11 29.9467 130.417 29.936 129.692 29.936C128.902 29.936 128.166 29.9467 127.484 29.968C126.801 29.9893 126.182 30 125.628 30C125.585 30 125.564 29.936 125.564 29.808C125.564 29.68 125.585 29.616 125.628 29.616C126.417 29.616 126.993 29.5627 127.356 29.456C127.74 29.3493 127.996 29.136 128.124 28.816C128.252 28.496 128.316 28.0267 128.316 27.408V12.816C128.316 12.1547 128.284 11.6853 128.22 11.408C128.156 11.1307 127.964 10.9707 127.644 10.928C127.345 10.864 126.833 10.832 126.108 10.832H119.548C118.758 10.832 118.193 10.864 117.852 10.928C117.532 10.992 117.329 11.1627 117.244 11.44C117.18 11.696 117.148 12.1547 117.148 12.816V27.408C117.148 28.0267 117.212 28.496 117.34 28.816C117.468 29.136 117.724 29.3493 118.108 29.456C118.492 29.5627 119.068 29.616 119.836 29.616C119.9 29.616 119.932 29.68 119.932 29.808C119.932 29.936 119.9 30 119.836 30C119.281 30 118.662 29.9893 117.98 29.968C117.318 29.9467 116.593 29.936 115.804 29.936C115.078 29.936 114.374 29.9467 113.692 29.968C113.03 29.9893 112.433 30 111.9 30C111.857 30 111.836 29.936 111.836 29.808C111.836 29.68 111.857 29.616 111.9 29.616C112.668 29.616 113.244 29.5627 113.628 29.456C114.033 29.3493 114.3 29.136 114.428 28.816C114.556 28.496 114.62 28.0267 114.62 27.408V12.976C114.62 12.0587 114.46 11.3973 114.14 10.992C113.82 10.5867 113.094 10.384 111.964 10.384C111.9 10.384 111.868 10.32 111.868 10.192C111.868 10.064 111.9 10 111.964 10C112.326 10 113.052 10.0107 114.14 10.032C115.249 10.0533 116.561 10.0747 118.076 10.096C119.612 10.096 121.212 10.096 122.876 10.096C124.198 10.096 125.457 10.096 126.652 10.096C127.868 10.0747 128.966 10.064 129.948 10.064C130.95 10.0427 131.772 10.032 132.412 10.032C133.052 10.0107 133.436 10 133.564 10C133.606 10 133.628 10.064 133.628 10.192C133.628 10.32 133.606 10.384 133.564 10.384C132.412 10.384 131.665 10.5867 131.324 10.992C131.004 11.3973 130.844 12.0587 130.844 12.976V27.408C130.844 28.0267 130.908 28.496 131.036 28.816C131.185 29.136 131.452 29.3493 131.836 29.456C132.22 29.5627 132.796 29.616 133.564 29.616ZM141.056 27.28C141.056 27.92 141.131 28.4107 141.28 28.752C141.451 29.072 141.792 29.296 142.304 29.424C142.816 29.552 143.584 29.616 144.608 29.616C144.672 29.616 144.704 29.68 144.704 29.808C144.704 29.936 144.672 30 144.608 30C143.926 30 143.179 29.9893 142.368 29.968C141.579 29.9467 140.715 29.936 139.776 29.936C139.072 29.936 138.379 29.9467 137.696 29.968C137.035 29.9893 136.438 30 135.904 30C135.862 30 135.84 29.936 135.84 29.808C135.84 29.68 135.862 29.616 135.904 29.616C136.651 29.616 137.206 29.5627 137.568 29.456C137.952 29.3493 138.198 29.136 138.304 28.816C138.432 28.496 138.496 28.0267 138.496 27.408V12.592C138.496 11.9733 138.432 11.5147 138.304 11.216C138.198 10.896 137.952 10.6827 137.568 10.576C137.206 10.448 136.651 10.384 135.904 10.384C135.862 10.384 135.84 10.32 135.84 10.192C135.84 10.064 135.862 10 135.904 10C136.438 10 137.035 10.0213 137.696 10.064C138.358 10.0853 139.04 10.096 139.744 10.096C140.299 10.096 140.971 10.064 141.76 10C142.571 9.936 143.382 9.904 144.192 9.904C145.43 9.904 146.539 10.0853 147.52 10.448C148.523 10.8107 149.323 11.376 149.92 12.144C150.518 12.912 150.827 13.9147 150.848 15.152C150.848 16.2613 150.646 17.2213 150.24 18.032C149.835 18.8427 149.28 19.5147 148.576 20.048C147.894 20.5813 147.126 20.976 146.272 21.232C145.44 21.488 144.619 21.616 143.808 21.616C143.552 21.616 143.286 21.6053 143.008 21.584C142.752 21.5627 142.507 21.52 142.272 21.456C142.187 21.4347 142.155 21.36 142.176 21.232C142.219 21.0827 142.272 21.0187 142.336 21.04C142.528 21.0827 142.72 21.1147 142.912 21.136C143.126 21.1573 143.307 21.168 143.456 21.168C144.267 21.168 145.014 20.976 145.696 20.592C146.379 20.208 146.934 19.6213 147.36 18.832C147.787 18.0213 148 17.0187 148 15.824C148 14.672 147.798 13.7013 147.392 12.912C147.008 12.1227 146.464 11.5147 145.76 11.088C145.056 10.6613 144.246 10.448 143.328 10.448C142.731 10.448 142.262 10.4907 141.92 10.576C141.6 10.6613 141.376 10.864 141.248 11.184C141.12 11.504 141.056 11.9947 141.056 12.656V27.28ZM167.133 30H153.501C153.437 30 153.405 29.936 153.405 29.808C153.405 29.68 153.437 29.616 153.501 29.616C154.226 29.616 154.77 29.5627 155.133 29.456C155.517 29.3493 155.773 29.136 155.901 28.816C156.029 28.496 156.093 28.0267 156.093 27.408V12.592C156.093 11.9733 156.029 11.5147 155.901 11.216C155.773 10.896 155.517 10.6827 155.133 10.576C154.77 10.448 154.226 10.384 153.501 10.384C153.437 10.384 153.405 10.32 153.405 10.192C153.405 10.064 153.437 10 153.501 10H166.557C166.77 10 166.877 10.096 166.877 10.288L166.941 14.32C166.941 14.384 166.877 14.4267 166.749 14.448C166.642 14.448 166.578 14.416 166.557 14.352C166.408 13.1787 165.992 12.2933 165.309 11.696C164.626 11.0773 163.73 10.768 162.621 10.768H160.989C160.349 10.768 159.858 10.8213 159.517 10.928C159.176 11.0347 158.941 11.2373 158.813 11.536C158.685 11.8133 158.621 12.208 158.621 12.72V27.28C158.621 27.792 158.674 28.1973 158.781 28.496C158.909 28.7733 159.133 28.976 159.453 29.104C159.773 29.2107 160.221 29.264 160.797 29.264H162.909C164.125 29.264 165.128 28.912 165.917 28.208C166.706 27.4827 167.25 26.4587 167.549 25.136C167.549 25.072 167.613 25.0507 167.741 25.072C167.869 25.0933 167.933 25.136 167.933 25.2C167.848 25.776 167.773 26.4693 167.709 27.28C167.645 28.0907 167.613 28.8373 167.613 29.52C167.613 29.84 167.453 30 167.133 30ZM165.341 22.64C165.341 21.7227 165.074 21.0507 164.541 20.624C164.029 20.176 163.197 19.952 162.045 19.952H157.405V19.216H162.141C163.229 19.216 164.029 19.0347 164.541 18.672C165.053 18.288 165.309 17.7013 165.309 16.912C165.309 16.8693 165.362 16.848 165.469 16.848C165.597 16.848 165.661 16.8693 165.661 16.912C165.661 17.5733 165.65 18.0853 165.629 18.448C165.629 18.8107 165.629 19.1947 165.629 19.6C165.629 20.0907 165.64 20.5813 165.661 21.072C165.704 21.5627 165.725 22.0853 165.725 22.64C165.725 22.6827 165.661 22.704 165.533 22.704C165.405 22.704 165.341 22.6827 165.341 22.64ZM173.277 26.352L173.597 10.736L174.397 10.8L174.077 26.352C174.055 27.4613 174.247 28.2827 174.653 28.816C175.079 29.3493 175.783 29.616 176.765 29.616C176.829 29.616 176.861 29.68 176.861 29.808C176.861 29.936 176.829 30 176.765 30C176.295 30 175.815 29.9893 175.325 29.968C174.834 29.9467 174.279 29.936 173.661 29.936C173.085 29.936 172.541 29.9467 172.029 29.968C171.517 29.9893 171.037 30 170.589 30C170.546 30 170.525 29.936 170.525 29.808C170.525 29.68 170.546 29.616 170.589 29.616C171.485 29.616 172.146 29.3493 172.573 28.816C173.021 28.2827 173.255 27.4613 173.277 26.352ZM195.677 29.616C195.719 29.616 195.741 29.68 195.741 29.808C195.741 29.936 195.719 30 195.677 30C195.143 30 194.546 29.9893 193.885 29.968C193.223 29.9467 192.519 29.936 191.773 29.936C191.069 29.936 190.407 29.9467 189.789 29.968C189.17 29.9893 188.615 30 188.125 30C188.061 30 188.029 29.936 188.029 29.808C188.029 29.68 188.061 29.616 188.125 29.616C189.17 29.616 189.842 29.4773 190.141 29.2C190.439 28.9227 190.557 28.3253 190.493 27.408L189.853 12.336L191.101 10.544L182.813 29.776C182.791 29.8613 182.706 29.904 182.557 29.904C182.429 29.904 182.343 29.8613 182.301 29.776L173.949 12.656C173.202 11.1413 172.157 10.384 170.813 10.384C170.77 10.384 170.749 10.32 170.749 10.192C170.749 10.064 170.77 10 170.813 10C171.197 10 171.591 10.0107 171.997 10.032C172.423 10.0533 172.786 10.064 173.085 10.064C173.49 10.064 173.853 10.0533 174.173 10.032C174.514 10.0107 174.77 10 174.941 10C175.239 10 175.474 10.1067 175.645 10.32C175.815 10.512 176.071 10.96 176.413 11.664L183.677 26.416L182.493 28.464L190.205 10.8C190.311 10.544 190.439 10.352 190.589 10.224C190.759 10.0747 190.951 10 191.165 10C191.314 10 191.495 10.0107 191.709 10.032C191.943 10.0533 192.21 10.064 192.509 10.064C193.106 10.064 193.607 10.0533 194.013 10.032C194.418 10.0107 194.834 10 195.261 10C195.303 10 195.325 10.064 195.325 10.192C195.325 10.32 195.303 10.384 195.261 10.384C194.237 10.384 193.49 10.5547 193.021 10.896C192.551 11.216 192.327 11.8133 192.349 12.688L193.021 27.408C193.063 28.0267 193.149 28.496 193.277 28.816C193.405 29.136 193.65 29.3493 194.013 29.456C194.375 29.5627 194.93 29.616 195.677 29.616ZM202.006 27.92L216.214 9.84C216.278 9.75467 216.417 9.712 216.63 9.712C216.737 9.712 216.844 9.73333 216.95 9.776C217.078 9.81867 217.142 9.872 217.142 9.936V27.408C217.142 28.0267 217.206 28.496 217.334 28.816C217.462 29.136 217.718 29.3493 218.102 29.456C218.508 29.5627 219.084 29.616 219.83 29.616C219.894 29.616 219.926 29.68 219.926 29.808C219.926 29.936 219.894 30 219.83 30C219.318 30 218.71 29.9893 218.006 29.968C217.324 29.9467 216.62 29.936 215.894 29.936C215.041 29.936 214.284 29.9467 213.622 29.968C212.961 29.9893 212.374 30 211.862 30C211.798 30 211.766 29.936 211.766 29.808C211.766 29.68 211.798 29.616 211.862 29.616C212.673 29.616 213.27 29.5627 213.654 29.456C214.038 29.3493 214.294 29.136 214.422 28.816C214.55 28.496 214.614 28.0267 214.614 27.408V12.24H215.35L201.142 30.32C201.078 30.384 200.94 30.416 200.726 30.416C200.598 30.416 200.481 30.3947 200.374 30.352C200.268 30.3307 200.214 30.2773 200.214 30.192V12.592C200.214 11.9733 200.15 11.5147 200.022 11.216C199.894 10.896 199.628 10.6827 199.222 10.576C198.838 10.448 198.262 10.384 197.494 10.384C197.452 10.384 197.43 10.32 197.43 10.192C197.43 10.064 197.452 10 197.494 10C198.028 10 198.636 10.0213 199.318 10.064C200.022 10.0853 200.737 10.096 201.462 10.096C202.316 10.096 203.073 10.0853 203.734 10.064C204.396 10.0213 204.982 10 205.494 10C205.558 10 205.59 10.064 205.59 10.192C205.59 10.32 205.558 10.384 205.494 10.384C204.705 10.384 204.108 10.448 203.702 10.576C203.318 10.6827 203.062 10.896 202.934 11.216C202.806 11.5147 202.742 11.9733 202.742 12.592V27.92H202.006ZM226.953 21.648L227.337 20.944H236.041L236.265 21.648H226.953ZM243.497 29.616C243.603 29.616 243.657 29.68 243.657 29.808C243.657 29.936 243.603 30 243.497 30C242.878 30 242.238 29.9787 241.577 29.936C240.937 29.8933 240.307 29.872 239.689 29.872C239.006 29.872 238.409 29.8933 237.897 29.936C237.406 29.9787 236.851 30 236.233 30C236.147 30 236.105 29.936 236.105 29.808C236.105 29.68 236.147 29.616 236.233 29.616C237.278 29.616 237.918 29.456 238.153 29.136C238.387 28.7947 238.27 28.1333 237.801 27.152L230.921 12.848L231.945 11.312L225.705 25.776C225.15 27.0773 225.118 28.048 225.609 28.688C226.099 29.3067 227.017 29.616 228.361 29.616C228.467 29.616 228.521 29.68 228.521 29.808C228.521 29.936 228.467 30 228.361 30C227.721 30 227.134 29.9787 226.601 29.936C226.067 29.8933 225.395 29.872 224.585 29.872C223.795 29.872 223.155 29.8933 222.665 29.936C222.195 29.9787 221.619 30 220.937 30C220.851 30 220.809 29.936 220.809 29.808C220.809 29.68 220.851 29.616 220.937 29.616C221.513 29.616 222.014 29.5093 222.441 29.296C222.867 29.0613 223.273 28.6453 223.657 28.048C224.062 27.4507 224.499 26.5973 224.969 25.488L231.785 9.776C231.806 9.712 231.881 9.68 232.009 9.68C232.137 9.65867 232.211 9.69067 232.233 9.776L239.913 25.616C240.425 26.6613 240.862 27.4827 241.225 28.08C241.609 28.656 241.982 29.0613 242.345 29.296C242.707 29.5093 243.091 29.616 243.497 29.616ZM243.53 30C243.445 30 243.402 29.936 243.402 29.808C243.402 29.68 243.445 29.616 243.53 29.616C244.107 29.616 244.608 29.5093 245.035 29.296C245.461 29.0613 245.867 28.6453 246.251 28.048C246.656 27.4507 247.093 26.5973 247.562 25.488L254.379 9.776C254.4 9.712 254.475 9.68 254.603 9.68C254.731 9.65867 254.805 9.69067 254.827 9.776L262.507 25.616C263.019 26.6613 263.456 27.4827 263.819 28.08C264.203 28.656 264.576 29.0613 264.939 29.296C265.301 29.5093 265.685 29.616 266.091 29.616C266.197 29.616 266.251 29.68 266.251 29.808C266.251 29.936 266.197 30 266.091 30C265.472 30 264.832 29.9787 264.171 29.936C263.531 29.8933 262.901 29.872 262.283 29.872C261.6 29.872 261.003 29.8933 260.491 29.936C260 29.9787 259.445 30 258.827 30C258.741 30 258.699 29.936 258.699 29.808C258.699 29.68 258.741 29.616 258.827 29.616C259.872 29.616 260.512 29.456 260.747 29.136C260.981 28.7947 260.864 28.1333 260.395 27.152L253.515 12.848L254.539 11.312L248.299 25.776C247.744 27.0773 247.712 28.048 248.203 28.688C248.693 29.3067 249.611 29.616 250.955 29.616C251.061 29.616 251.115 29.68 251.115 29.808C251.115 29.936 251.061 30 250.955 30C250.315 30 249.728 29.9787 249.195 29.936C248.661 29.8933 247.989 29.872 247.179 29.872C246.389 29.872 245.749 29.8933 245.259 29.936C244.789 29.9787 244.213 30 243.53 30ZM276.044 30.128C275.682 30.128 275.223 30.1067 274.668 30.064C274.135 30.0427 273.58 30.0213 273.004 30C272.428 29.9573 271.863 29.936 271.308 29.936C270.668 29.936 270.007 29.9467 269.324 29.968C268.642 29.9893 268.044 30 267.532 30C267.468 30 267.436 29.936 267.436 29.808C267.436 29.68 267.468 29.616 267.532 29.616C268.258 29.5947 268.802 29.5413 269.164 29.456C269.548 29.3493 269.804 29.1467 269.932 28.848C270.082 28.528 270.156 28.048 270.156 27.408V12.592C270.156 11.952 270.092 11.4827 269.964 11.184C269.836 10.864 269.591 10.6613 269.228 10.576C268.866 10.4693 268.311 10.4053 267.564 10.384C267.522 10.384 267.5 10.32 267.5 10.192C267.5 10.064 267.522 10 267.564 10C268.098 10 268.674 10.0213 269.292 10.064C269.911 10.0853 270.604 10.096 271.372 10.096C272.183 10.096 272.93 10.0853 273.612 10.064C274.316 10.0213 274.924 10 275.436 10C275.5 10 275.532 10.064 275.532 10.192C275.532 10.32 275.5 10.384 275.436 10.384C274.69 10.4053 274.114 10.4693 273.708 10.576C273.324 10.6827 273.058 10.896 272.908 11.216C272.759 11.5147 272.684 11.9947 272.684 12.656V27.408C272.684 27.8347 272.748 28.208 272.876 28.528C273.004 28.8267 273.26 29.0613 273.644 29.232C274.05 29.4027 274.647 29.488 275.436 29.488C277.1 29.488 278.284 29.0933 278.988 28.304C279.692 27.4933 280.044 26.2773 280.044 24.656C280.044 23.376 279.863 22.352 279.5 21.584C279.138 20.816 278.604 20.272 277.9 19.952C277.196 19.6107 276.322 19.44 275.276 19.44C274.7 19.44 274.103 19.4827 273.484 19.568C272.866 19.6533 272.247 19.7707 271.628 19.92L271.532 19.248C272.279 19.0773 273.047 18.9493 273.836 18.864C274.626 18.7573 275.394 18.704 276.14 18.704C277.484 18.704 278.647 18.8853 279.628 19.248C280.61 19.5893 281.378 20.144 281.932 20.912C282.487 21.68 282.764 22.6933 282.764 23.952C282.764 25.1893 282.476 26.2773 281.9 27.216C281.346 28.1333 280.556 28.848 279.532 29.36C278.53 29.872 277.367 30.128 276.044 30.128ZM301.859 12.656C301.859 12.0373 301.795 11.568 301.667 11.248C301.56 10.928 301.304 10.704 300.899 10.576C300.515 10.448 299.918 10.384 299.107 10.384C299.043 10.384 299.011 10.32 299.011 10.192C299.011 10.064 299.043 10 299.107 10C299.619 10 300.206 10.0213 300.867 10.064C301.55 10.0853 302.307 10.096 303.139 10.096C303.864 10.096 304.568 10.0853 305.251 10.064C305.955 10.0213 306.563 10 307.075 10C307.139 10 307.171 10.064 307.171 10.192C307.171 10.32 307.139 10.384 307.075 10.384C306.328 10.384 305.752 10.448 305.347 10.576C304.963 10.6827 304.707 10.896 304.579 11.216C304.451 11.5147 304.387 11.9733 304.387 12.592V27.408C304.387 28.0267 304.451 28.496 304.579 28.816C304.707 29.136 304.963 29.3493 305.347 29.456C305.752 29.5627 306.328 29.616 307.075 29.616C307.139 29.616 307.171 29.68 307.171 29.808C307.171 29.936 307.139 30 307.075 30C306.563 30 305.955 29.9893 305.251 29.968C304.568 29.9467 303.864 29.936 303.139 29.936C302.307 29.936 301.55 29.9467 300.867 29.968C300.206 29.9893 299.619 30 299.107 30C299.043 30 299.011 29.936 299.011 29.808C299.011 29.68 299.043 29.616 299.107 29.616C299.918 29.616 300.515 29.5627 300.899 29.456C301.304 29.3493 301.56 29.136 301.667 28.816C301.795 28.496 301.859 28.0267 301.859 27.408V12.656ZM288.835 19.952V19.216H302.979V19.952H288.835ZM287.651 27.408V12.592C287.651 11.9733 287.587 11.5147 287.459 11.216C287.331 10.896 287.075 10.6827 286.691 10.576C286.307 10.448 285.742 10.384 284.995 10.384C284.931 10.384 284.899 10.32 284.899 10.192C284.899 10.064 284.931 10 284.995 10C285.528 10 286.126 10.0213 286.787 10.064C287.448 10.0853 288.142 10.096 288.867 10.096C289.72 10.096 290.478 10.0853 291.139 10.064C291.822 10.0213 292.43 10 292.963 10C293.006 10 293.027 10.064 293.027 10.192C293.027 10.32 293.006 10.384 292.963 10.384C292.174 10.384 291.576 10.448 291.171 10.576C290.787 10.704 290.52 10.928 290.371 11.248C290.243 11.568 290.179 12.0373 290.179 12.656V27.408C290.179 28.0267 290.243 28.496 290.371 28.816C290.499 29.136 290.766 29.3493 291.171 29.456C291.576 29.5627 292.174 29.616 292.963 29.616C293.006 29.616 293.027 29.68 293.027 29.808C293.027 29.936 293.006 30 292.963 30C292.408 30 291.8 29.9893 291.139 29.968C290.478 29.9467 289.72 29.936 288.867 29.936C288.142 29.936 287.438 29.9467 286.755 29.968C286.072 29.9893 285.464 30 284.931 30C284.888 30 284.867 29.936 284.867 29.808C284.867 29.68 284.888 29.616 284.931 29.616C285.699 29.616 286.275 29.5627 286.659 29.456C287.064 29.3493 287.331 29.136 287.459 28.816C287.587 28.496 287.651 28.0267 287.651 27.408ZM314.203 21.648L314.587 20.944H323.291L323.515 21.648H314.203ZM330.747 29.616C330.853 29.616 330.907 29.68 330.907 29.808C330.907 29.936 330.853 30 330.747 30C330.128 30 329.488 29.9787 328.827 29.936C328.187 29.8933 327.557 29.872 326.939 29.872C326.256 29.872 325.659 29.8933 325.147 29.936C324.656 29.9787 324.101 30 323.483 30C323.397 30 323.355 29.936 323.355 29.808C323.355 29.68 323.397 29.616 323.483 29.616C324.528 29.616 325.168 29.456 325.403 29.136C325.637 28.7947 325.52 28.1333 325.051 27.152L318.171 12.848L319.195 11.312L312.955 25.776C312.4 27.0773 312.368 28.048 312.859 28.688C313.349 29.3067 314.267 29.616 315.611 29.616C315.717 29.616 315.771 29.68 315.771 29.808C315.771 29.936 315.717 30 315.611 30C314.971 30 314.384 29.9787 313.851 29.936C313.317 29.8933 312.645 29.872 311.835 29.872C311.045 29.872 310.405 29.8933 309.915 29.936C309.445 29.9787 308.869 30 308.187 30C308.101 30 308.059 29.936 308.059 29.808C308.059 29.68 308.101 29.616 308.187 29.616C308.763 29.616 309.264 29.5093 309.691 29.296C310.117 29.0613 310.523 28.6453 310.907 28.048C311.312 27.4507 311.749 26.5973 312.219 25.488L319.035 9.776C319.056 9.712 319.131 9.68 319.259 9.68C319.387 9.65867 319.461 9.69067 319.483 9.776L327.163 25.616C327.675 26.6613 328.112 27.4827 328.475 28.08C328.859 28.656 329.232 29.0613 329.595 29.296C329.957 29.5093 330.341 29.616 330.747 29.616ZM348.989 29.616C349.031 29.616 349.053 29.68 349.053 29.808C349.053 29.936 349.031 30 348.989 30C348.455 30 347.847 29.9893 347.165 29.968C346.503 29.9467 345.789 29.936 345.021 29.936C344.274 29.936 343.57 29.9467 342.909 29.968C342.269 29.9893 341.682 30 341.149 30C341.106 30 341.085 29.936 341.085 29.808C341.085 29.68 341.106 29.616 341.149 29.616C341.917 29.616 342.482 29.5627 342.845 29.456C343.207 29.3493 343.442 29.136 343.549 28.816C343.677 28.496 343.741 28.0267 343.741 27.408V19.472L344.541 19.632C343.965 19.632 343.442 19.6853 342.973 19.792C342.503 19.8987 342.045 20.1227 341.597 20.464C341.17 20.784 340.711 21.2747 340.22 21.936C339.73 22.5973 339.165 23.4933 338.525 24.624C337.714 26.032 337.063 27.1093 336.573 27.856C336.082 28.6027 335.698 29.1253 335.421 29.424C335.165 29.7227 334.951 29.8933 334.781 29.936C334.631 29.9787 334.461 30 334.269 30H330.684C330.62 30 330.588 29.936 330.588 29.808C330.588 29.68 330.62 29.616 330.684 29.616C331.431 29.5947 332.071 29.3813 332.605 28.976C333.159 28.5493 333.703 27.92 334.237 27.088C334.791 26.256 335.442 25.2213 336.189 23.984C336.85 22.832 337.479 21.9467 338.077 21.328C338.674 20.7093 339.314 20.2613 339.997 19.984C340.679 19.7067 341.437 19.536 342.269 19.472L342.493 19.696C340.103 19.6747 338.29 19.2267 337.053 18.352C335.837 17.4773 335.229 16.304 335.229 14.832C335.229 13.8507 335.495 12.9973 336.029 12.272C336.562 11.5253 337.287 10.9493 338.205 10.544C339.122 10.1173 340.167 9.904 341.341 9.904C341.789 9.904 342.375 9.936 343.101 10C343.847 10.064 344.487 10.096 345.021 10.096C345.789 10.096 346.503 10.0853 347.165 10.064C347.826 10.0213 348.434 10 348.989 10C349.031 10 349.053 10.064 349.053 10.192C349.053 10.32 349.031 10.384 348.989 10.384C348.199 10.384 347.613 10.448 347.229 10.576C346.845 10.6827 346.589 10.896 346.461 11.216C346.333 11.5147 346.269 11.9733 346.269 12.592V27.408C346.269 28.0267 346.333 28.496 346.461 28.816C346.589 29.136 346.845 29.3493 347.229 29.456C347.613 29.5627 348.199 29.616 348.989 29.616ZM337.853 14.032C337.853 15.5253 338.258 16.752 339.069 17.712C339.901 18.6507 341.138 19.12 342.781 19.12C343.079 19.12 343.399 19.1093 343.741 19.088C344.103 19.0453 344.391 18.992 344.605 18.928L343.741 19.216V12.656C343.741 12.0373 343.613 11.5573 343.357 11.216C343.122 10.8747 342.823 10.64 342.461 10.512C342.098 10.384 341.703 10.32 341.277 10.32C338.994 10.32 337.853 11.5573 337.853 14.032ZM360.474 30L368.762 9.776C368.783 9.712 368.858 9.68 368.986 9.68C369.135 9.65867 369.22 9.69067 369.242 9.776L377.914 30H375.13L367.866 12.944L369.018 11.312L361.37 30H360.474ZM358.714 35.024C358.714 34.0853 358.692 33.3173 358.65 32.72C358.628 32.144 358.586 31.6747 358.522 31.312C358.479 30.9707 358.436 30.672 358.394 30.416C358.372 30.16 358.362 29.8827 358.362 29.584C358.362 29.4133 358.383 29.3173 358.426 29.296C358.468 29.2533 358.564 29.232 358.714 29.232H379.29C379.46 29.232 379.556 29.2533 379.578 29.296C379.62 29.3173 379.642 29.4133 379.642 29.584C379.642 29.8613 379.61 30.1813 379.546 30.544C379.503 30.9067 379.45 31.4293 379.386 32.112C379.343 32.7947 379.322 33.7653 379.322 35.024C379.322 35.1093 379.258 35.152 379.13 35.152C379.023 35.152 378.97 35.1093 378.97 35.024C378.97 33.3173 378.49 32.048 377.53 31.216C376.591 30.4053 375.108 30 373.082 30H364.122C363.14 30 362.266 30.16 361.498 30.48C360.73 30.8213 360.132 31.3547 359.706 32.08C359.279 32.8267 359.066 33.808 359.066 35.024C359.066 35.1093 359.002 35.152 358.874 35.152C358.767 35.152 358.714 35.1093 358.714 35.024ZM391.743 30.384C390.207 30.384 388.81 30.1173 387.551 29.584C386.314 29.0293 385.247 28.272 384.351 27.312C383.477 26.352 382.794 25.2533 382.303 24.016C381.834 22.7573 381.599 21.424 381.599 20.016C381.599 18.288 381.93 16.7733 382.591 15.472C383.274 14.1707 384.17 13.0933 385.279 12.24C386.389 11.3653 387.605 10.7147 388.927 10.288C390.25 9.86133 391.562 9.648 392.863 9.648C394.442 9.648 395.85 9.936 397.087 10.512C398.346 11.0667 399.413 11.824 400.287 12.784C401.162 13.744 401.823 14.832 402.271 16.048C402.741 17.264 402.975 18.512 402.975 19.792C402.975 21.2853 402.677 22.672 402.079 23.952C401.482 25.232 400.661 26.352 399.615 27.312C398.591 28.272 397.397 29.0293 396.031 29.584C394.687 30.1173 393.258 30.384 391.743 30.384ZM392.863 29.68C394.207 29.68 395.423 29.3387 396.511 28.656C397.621 27.952 398.485 26.9387 399.103 25.616C399.743 24.272 400.063 22.6293 400.063 20.688C400.063 18.704 399.711 16.944 399.007 15.408C398.325 13.8507 397.343 12.6347 396.063 11.76C394.805 10.864 393.301 10.416 391.551 10.416C389.311 10.416 387.573 11.1733 386.335 12.688C385.119 14.2027 384.511 16.272 384.511 18.896C384.511 20.4107 384.703 21.8293 385.087 23.152C385.493 24.4533 386.069 25.5947 386.815 26.576C387.562 27.5573 388.447 28.3253 389.471 28.88C390.495 29.4133 391.626 29.68 392.863 29.68ZM408.339 26.352L408.659 10.736L409.459 10.8L409.139 26.352C409.118 27.4613 409.31 28.2827 409.715 28.816C410.142 29.3493 410.846 29.616 411.827 29.616C411.891 29.616 411.923 29.68 411.923 29.808C411.923 29.936 411.891 30 411.827 30C411.358 30 410.878 29.9893 410.387 29.968C409.897 29.9467 409.342 29.936 408.723 29.936C408.147 29.936 407.603 29.9467 407.091 29.968C406.579 29.9893 406.099 30 405.651 30C405.609 30 405.587 29.936 405.587 29.808C405.587 29.68 405.609 29.616 405.651 29.616C406.547 29.616 407.209 29.3493 407.635 28.816C408.083 28.2827 408.318 27.4613 408.339 26.352ZM430.739 29.616C430.782 29.616 430.803 29.68 430.803 29.808C430.803 29.936 430.782 30 430.739 30C430.206 30 429.609 29.9893 428.947 29.968C428.286 29.9467 427.582 29.936 426.835 29.936C426.131 29.936 425.47 29.9467 424.851 29.968C424.233 29.9893 423.678 30 423.187 30C423.123 30 423.091 29.936 423.091 29.808C423.091 29.68 423.123 29.616 423.187 29.616C424.233 29.616 424.905 29.4773 425.203 29.2C425.502 28.9227 425.619 28.3253 425.555 27.408L424.915 12.336L426.163 10.544L417.875 29.776C417.854 29.8613 417.769 29.904 417.619 29.904C417.491 29.904 417.406 29.8613 417.363 29.776L409.011 12.656C408.265 11.1413 407.219 10.384 405.875 10.384C405.833 10.384 405.811 10.32 405.811 10.192C405.811 10.064 405.833 10 405.875 10C406.259 10 406.654 10.0107 407.059 10.032C407.486 10.0533 407.849 10.064 408.147 10.064C408.553 10.064 408.915 10.0533 409.235 10.032C409.577 10.0107 409.833 10 410.003 10C410.302 10 410.537 10.1067 410.707 10.32C410.878 10.512 411.134 10.96 411.475 11.664L418.739 26.416L417.555 28.464L425.267 10.8C425.374 10.544 425.502 10.352 425.651 10.224C425.822 10.0747 426.014 10 426.227 10C426.377 10 426.558 10.0107 426.771 10.032C427.006 10.0533 427.273 10.064 427.571 10.064C428.169 10.064 428.67 10.0533 429.075 10.032C429.481 10.0107 429.897 10 430.323 10C430.366 10 430.387 10.064 430.387 10.192C430.387 10.32 430.366 10.384 430.323 10.384C429.299 10.384 428.553 10.5547 428.083 10.896C427.614 11.216 427.39 11.8133 427.411 12.688L428.083 27.408C428.126 28.0267 428.211 28.496 428.339 28.816C428.467 29.136 428.713 29.3493 429.075 29.456C429.438 29.5627 429.993 29.616 430.739 29.616ZM437.069 27.92L451.277 9.84C451.341 9.75467 451.479 9.712 451.693 9.712C451.799 9.712 451.906 9.73333 452.013 9.776C452.141 9.81867 452.205 9.872 452.205 9.936V27.408C452.205 28.0267 452.269 28.496 452.397 28.816C452.525 29.136 452.781 29.3493 453.165 29.456C453.57 29.5627 454.146 29.616 454.893 29.616C454.957 29.616 454.989 29.68 454.989 29.808C454.989 29.936 454.957 30 454.893 30C454.381 30 453.773 29.9893 453.069 29.968C452.386 29.9467 451.682 29.936 450.957 29.936C450.103 29.936 449.346 29.9467 448.685 29.968C448.023 29.9893 447.437 30 446.925 30C446.861 30 446.829 29.936 446.829 29.808C446.829 29.68 446.861 29.616 446.925 29.616C447.735 29.616 448.333 29.5627 448.717 29.456C449.101 29.3493 449.357 29.136 449.485 28.816C449.613 28.496 449.677 28.0267 449.677 27.408V12.24H450.413L436.205 30.32C436.141 30.384 436.002 30.416 435.789 30.416C435.661 30.416 435.543 30.3947 435.437 30.352C435.33 30.3307 435.277 30.2773 435.277 30.192V12.592C435.277 11.9733 435.213 11.5147 435.085 11.216C434.957 10.896 434.69 10.6827 434.285 10.576C433.901 10.448 433.325 10.384 432.557 10.384C432.514 10.384 432.493 10.32 432.493 10.192C432.493 10.064 432.514 10 432.557 10C433.09 10 433.698 10.0213 434.381 10.064C435.085 10.0853 435.799 10.096 436.525 10.096C437.378 10.096 438.135 10.0853 438.797 10.064C439.458 10.0213 440.045 10 440.557 10C440.621 10 440.653 10.064 440.653 10.192C440.653 10.32 440.621 10.384 440.557 10.384C439.767 10.384 439.17 10.448 438.765 10.576C438.381 10.6827 438.125 10.896 437.997 11.216C437.869 11.5147 437.805 11.9733 437.805 12.592V27.92H437.069ZM474.015 12.656C474.015 12.0373 473.951 11.568 473.823 11.248C473.717 10.928 473.461 10.704 473.055 10.576C472.671 10.448 472.074 10.384 471.263 10.384C471.199 10.384 471.167 10.32 471.167 10.192C471.167 10.064 471.199 10 471.263 10C471.775 10 472.362 10.0213 473.023 10.064C473.706 10.0853 474.463 10.096 475.295 10.096C476.021 10.096 476.725 10.0853 477.407 10.064C478.111 10.0213 478.719 10 479.231 10C479.295 10 479.327 10.064 479.327 10.192C479.327 10.32 479.295 10.384 479.231 10.384C478.485 10.384 477.909 10.448 477.503 10.576C477.119 10.6827 476.863 10.896 476.735 11.216C476.607 11.5147 476.543 11.9733 476.543 12.592V27.408C476.543 28.0267 476.607 28.496 476.735 28.816C476.863 29.136 477.119 29.3493 477.503 29.456C477.909 29.5627 478.485 29.616 479.231 29.616C479.295 29.616 479.327 29.68 479.327 29.808C479.327 29.936 479.295 30 479.231 30C478.719 30 478.111 29.9893 477.407 29.968C476.725 29.9467 476.021 29.936 475.295 29.936C474.463 29.936 473.706 29.9467 473.023 29.968C472.362 29.9893 471.775 30 471.263 30C471.199 30 471.167 29.936 471.167 29.808C471.167 29.68 471.199 29.616 471.263 29.616C472.074 29.616 472.671 29.5627 473.055 29.456C473.461 29.3493 473.717 29.136 473.823 28.816C473.951 28.496 474.015 28.0267 474.015 27.408V12.656ZM460.991 19.952V19.216H475.135V19.952H460.991ZM459.807 27.408V12.592C459.807 11.9733 459.743 11.5147 459.615 11.216C459.487 10.896 459.231 10.6827 458.847 10.576C458.463 10.448 457.898 10.384 457.151 10.384C457.087 10.384 457.055 10.32 457.055 10.192C457.055 10.064 457.087 10 457.151 10C457.685 10 458.282 10.0213 458.943 10.064C459.605 10.0853 460.298 10.096 461.023 10.096C461.877 10.096 462.634 10.0853 463.295 10.064C463.978 10.0213 464.586 10 465.119 10C465.162 10 465.183 10.064 465.183 10.192C465.183 10.32 465.162 10.384 465.119 10.384C464.33 10.384 463.733 10.448 463.327 10.576C462.943 10.704 462.677 10.928 462.527 11.248C462.399 11.568 462.335 12.0373 462.335 12.656V27.408C462.335 28.0267 462.399 28.496 462.527 28.816C462.655 29.136 462.922 29.3493 463.327 29.456C463.733 29.5627 464.33 29.616 465.119 29.616C465.162 29.616 465.183 29.68 465.183 29.808C465.183 29.936 465.162 30 465.119 30C464.565 30 463.957 29.9893 463.295 29.968C462.634 29.9467 461.877 29.936 461.023 29.936C460.298 29.936 459.594 29.9467 458.911 29.968C458.229 29.9893 457.621 30 457.087 30C457.045 30 457.023 29.936 457.023 29.808C457.023 29.68 457.045 29.616 457.087 29.616C457.855 29.616 458.431 29.5627 458.815 29.456C459.221 29.3493 459.487 29.136 459.615 28.816C459.743 28.496 459.807 28.0267 459.807 27.408ZM486.359 21.648L486.743 20.944H495.447L495.671 21.648H486.359ZM502.903 29.616C503.01 29.616 503.063 29.68 503.063 29.808C503.063 29.936 503.01 30 502.903 30C502.284 30 501.644 29.9787 500.983 29.936C500.343 29.8933 499.714 29.872 499.095 29.872C498.412 29.872 497.815 29.8933 497.303 29.936C496.812 29.9787 496.258 30 495.639 30C495.554 30 495.511 29.936 495.511 29.808C495.511 29.68 495.554 29.616 495.639 29.616C496.684 29.616 497.324 29.456 497.559 29.136C497.794 28.7947 497.676 28.1333 497.207 27.152L490.327 12.848L491.351 11.312L485.111 25.776C484.556 27.0773 484.524 28.048 485.015 28.688C485.506 29.3067 486.423 29.616 487.767 29.616C487.874 29.616 487.927 29.68 487.927 29.808C487.927 29.936 487.874 30 487.767 30C487.127 30 486.54 29.9787 486.007 29.936C485.474 29.8933 484.802 29.872 483.991 29.872C483.202 29.872 482.562 29.8933 482.071 29.936C481.602 29.9787 481.026 30 480.343 30C480.258 30 480.215 29.936 480.215 29.808C480.215 29.68 480.258 29.616 480.343 29.616C480.919 29.616 481.42 29.5093 481.847 29.296C482.274 29.0613 482.679 28.6453 483.063 28.048C483.468 27.4507 483.906 26.5973 484.375 25.488L491.191 9.776C491.212 9.712 491.287 9.68 491.415 9.68C491.543 9.65867 491.618 9.69067 491.639 9.776L499.319 25.616C499.831 26.6613 500.268 27.4827 500.631 28.08C501.015 28.656 501.388 29.0613 501.751 29.296C502.114 29.5093 502.498 29.616 502.903 29.616ZM520.953 12.656C520.953 12.0373 520.889 11.568 520.761 11.248C520.654 10.928 520.398 10.704 519.993 10.576C519.609 10.448 519.011 10.384 518.201 10.384C518.137 10.384 518.105 10.32 518.105 10.192C518.105 10.064 518.137 10 518.201 10C518.713 10 519.299 10.0213 519.961 10.064C520.643 10.0853 521.401 10.096 522.233 10.096C522.958 10.096 523.662 10.0853 524.345 10.064C525.049 10.0213 525.657 10 526.169 10C526.233 10 526.265 10.064 526.265 10.192C526.265 10.32 526.233 10.384 526.169 10.384C525.422 10.384 524.846 10.448 524.441 10.576C524.057 10.6827 523.801 10.896 523.673 11.216C523.545 11.5147 523.481 11.9733 523.481 12.592V27.408C523.481 28.0267 523.545 28.496 523.673 28.816C523.801 29.136 524.057 29.3493 524.441 29.456C524.846 29.5627 525.422 29.616 526.169 29.616C526.233 29.616 526.265 29.68 526.265 29.808C526.265 29.936 526.233 30 526.169 30C525.657 30 525.049 29.9893 524.345 29.968C523.662 29.9467 522.958 29.936 522.233 29.936C521.401 29.936 520.643 29.9467 519.961 29.968C519.299 29.9893 518.713 30 518.201 30C518.137 30 518.105 29.936 518.105 29.808C518.105 29.68 518.137 29.616 518.201 29.616C519.011 29.616 519.609 29.5627 519.993 29.456C520.398 29.3493 520.654 29.136 520.761 28.816C520.889 28.496 520.953 28.0267 520.953 27.408V12.656ZM507.929 19.952V19.216H522.073V19.952H507.929ZM506.745 27.408V12.592C506.745 11.9733 506.681 11.5147 506.553 11.216C506.425 10.896 506.169 10.6827 505.785 10.576C505.401 10.448 504.835 10.384 504.089 10.384C504.025 10.384 503.993 10.32 503.993 10.192C503.993 10.064 504.025 10 504.089 10C504.622 10 505.219 10.0213 505.881 10.064C506.542 10.0853 507.235 10.096 507.961 10.096C508.814 10.096 509.571 10.0853 510.233 10.064C510.915 10.0213 511.523 10 512.057 10C512.099 10 512.121 10.064 512.121 10.192C512.121 10.32 512.099 10.384 512.057 10.384C511.267 10.384 510.67 10.448 510.265 10.576C509.881 10.704 509.614 10.928 509.465 11.248C509.337 11.568 509.273 12.0373 509.273 12.656V27.408C509.273 28.0267 509.337 28.496 509.465 28.816C509.593 29.136 509.859 29.3493 510.265 29.456C510.67 29.5627 511.267 29.616 512.057 29.616C512.099 29.616 512.121 29.68 512.121 29.808C512.121 29.936 512.099 30 512.057 30C511.502 30 510.894 29.9893 510.233 29.968C509.571 29.9467 508.814 29.936 507.961 29.936C507.235 29.936 506.531 29.9467 505.849 29.968C505.166 29.9893 504.558 30 504.025 30C503.982 30 503.961 29.936 503.961 29.808C503.961 29.68 503.982 29.616 504.025 29.616C504.793 29.616 505.369 29.5627 505.753 29.456C506.158 29.3493 506.425 29.136 506.553 28.816C506.681 28.496 506.745 28.0267 506.745 27.408ZM533.681 10.64C532.358 10.64 531.323 11.0133 530.577 11.76C529.83 12.4853 529.275 13.6587 528.913 15.28C528.891 15.3227 528.817 15.344 528.689 15.344C528.582 15.344 528.529 15.312 528.529 15.248C528.571 14.9707 528.614 14.576 528.657 14.064C528.721 13.552 528.774 12.9973 528.817 12.4C528.859 11.8027 528.891 11.2267 528.913 10.672C528.955 10.1173 528.977 9.65867 528.977 9.296C528.977 9.18933 529.041 9.136 529.169 9.136C529.297 9.136 529.361 9.18933 529.361 9.296C529.361 9.50933 529.467 9.66933 529.681 9.776C529.894 9.86133 530.139 9.92533 530.417 9.968C530.694 9.98933 530.929 10 531.121 10C532.955 10.064 535.099 10.096 537.553 10.096C539.046 10.096 540.241 10.0853 541.137 10.064C542.033 10.0213 542.897 10 543.729 10C544.454 10 545.009 9.95733 545.392 9.872C545.798 9.76533 546.054 9.54133 546.161 9.2C546.182 9.11467 546.246 9.072 546.353 9.072C546.481 9.072 546.545 9.11467 546.545 9.2C546.502 9.52 546.459 9.968 546.417 10.544C546.395 11.12 546.363 11.7173 546.321 12.336C546.299 12.9547 546.278 13.5307 546.257 14.064C546.235 14.5973 546.225 14.992 546.225 15.248C546.225 15.312 546.161 15.344 546.033 15.344C545.926 15.344 545.873 15.312 545.873 15.248C545.723 13.584 545.297 12.4 544.593 11.696C543.889 10.992 542.843 10.64 541.457 10.64C540.71 10.64 540.145 10.6933 539.761 10.8C539.398 10.8853 539.153 11.0667 539.025 11.344C538.918 11.6213 538.865 12.0587 538.865 12.656V27.408C538.865 28.0267 538.929 28.496 539.057 28.816C539.206 29.136 539.483 29.3493 539.889 29.456C540.315 29.5627 540.966 29.616 541.841 29.616C541.883 29.616 541.905 29.68 541.905 29.808C541.905 29.936 541.883 30 541.841 30C541.265 30 540.614 29.9893 539.889 29.968C539.185 29.9467 538.406 29.936 537.553 29.936C536.742 29.936 535.974 29.9467 535.249 29.968C534.545 29.9893 533.894 30 533.297 30C533.233 30 533.201 29.936 533.201 29.808C533.201 29.68 533.233 29.616 533.297 29.616C534.129 29.616 534.758 29.5627 535.185 29.456C535.633 29.3493 535.931 29.136 536.081 28.816C536.23 28.496 536.305 28.0267 536.305 27.408V12.592C536.305 12.016 536.241 11.5893 536.113 11.312C535.985 11.0133 535.729 10.832 535.345 10.768C534.961 10.6827 534.406 10.64 533.681 10.64ZM551.422 21.648L551.806 20.944H560.51L560.734 21.648H551.422ZM567.966 29.616C568.072 29.616 568.126 29.68 568.126 29.808C568.126 29.936 568.072 30 567.966 30C567.347 30 566.707 29.9787 566.046 29.936C565.406 29.8933 564.776 29.872 564.158 29.872C563.475 29.872 562.878 29.8933 562.366 29.936C561.875 29.9787 561.32 30 560.702 30C560.616 30 560.574 29.936 560.574 29.808C560.574 29.68 560.616 29.616 560.702 29.616C561.747 29.616 562.387 29.456 562.622 29.136C562.856 28.7947 562.739 28.1333 562.27 27.152L555.39 12.848L556.414 11.312L550.174 25.776C549.619 27.0773 549.587 28.048 550.078 28.688C550.568 29.3067 551.486 29.616 552.83 29.616C552.936 29.616 552.99 29.68 552.99 29.808C552.99 29.936 552.936 30 552.83 30C552.19 30 551.603 29.9787 551.07 29.936C550.536 29.8933 549.864 29.872 549.054 29.872C548.264 29.872 547.624 29.8933 547.134 29.936C546.664 29.9787 546.088 30 545.405 30C545.32 30 545.277 29.936 545.277 29.808C545.277 29.68 545.32 29.616 545.405 29.616C545.982 29.616 546.483 29.5093 546.91 29.296C547.336 29.0613 547.742 28.6453 548.126 28.048C548.531 27.4507 548.968 26.5973 549.438 25.488L556.254 9.776C556.275 9.712 556.35 9.68 556.478 9.68C556.606 9.65867 556.68 9.69067 556.702 9.776L564.382 25.616C564.894 26.6613 565.331 27.4827 565.694 28.08C566.078 28.656 566.451 29.0613 566.814 29.296C567.176 29.5093 567.56 29.616 567.966 29.616Z" fill="#8C241F"/>
</svg>
