<svg width="188" height="50" viewBox="0 0 188 50" fill="none" xmlns="http://www.w3.org/2000/svg">
<path d="M12.1918 29.8015L24.0528 6.52638L34.0455 29.8015H12.1918ZM15.4396 -7.99577e-06L22.3886 2.65029L23.1324 4.383L7.75667 34.7787L0 49.9999H1.89879L11.3245 31.5036H34.776L42.7173 49.9999H51.4834L28.5251 0.000303664L15.4396 -7.99577e-06Z" fill="#8C241F"/>
<path d="M148.708 29.8017L160.569 6.52659L170.562 29.8017H148.708ZM151.956 0.000205627L158.905 2.6505L159.649 4.38322L144.273 34.7789L136.517 50.0002H138.415L147.841 31.5038H171.293L179.234 50.0002H188L165.042 0.000517287L151.956 0.000205627Z" fill="#8C241F"/>
<path d="M67.6636 35.8884L49.3753 0.000266662H47.4766L66.7955 37.9108L62.743 47.3499L55.8766 50.0002H68.8791L91.8374 0.000266662H83.0713L67.6636 35.8884Z" fill="#8C241F"/>
<path d="M138.875 16.1737C138.673 23.7904 132.36 29.8018 124.799 29.8018H109.31L109.224 1.70236H124.899C129.383 1.70236 133.644 3.81572 136.263 7.48324C137.914 9.79497 138.881 12.6288 138.881 15.7693C138.881 15.9045 138.879 16.0394 138.875 16.1737ZM145.024 15.6099C144.939 6.95497 137.835 0.0349395 129.245 0.0349395L96.217 0.000279119L103.082 2.65057V49.9656H109.372L109.315 31.5039H129.692V31.5005C138.238 31.3482 145.109 24.2781 145.024 15.6099Z" fill="#8C241F"/>
</svg>
