<svg width="101" height="100" viewBox="0 0 101 100" fill="none" xmlns="http://www.w3.org/2000/svg">
<g clip-path="url(#clip0_72_49)">
<mask id="mask0_72_49" style="mask-type:luminance" maskUnits="userSpaceOnUse" x="0" y="0" width="101" height="100">
<path d="M100.5 0H0.5V100H100.5V0Z" fill="white"/>
</mask>
<g mask="url(#mask0_72_49)">
<path fill-rule="evenodd" clip-rule="evenodd" d="M7.52944 7.02944C0.5 14.0589 0.5 25.3726 0.5 48V52C0.5 74.6274 0.5 85.9411 7.52944 92.9706C14.5589 100 25.8726 100 48.5 100H52.5C75.1274 100 86.4411 100 93.4706 92.9706C100.5 85.9411 100.5 74.6274 100.5 52V48C100.5 25.3726 100.5 14.0589 93.4706 7.02944C86.4411 0 75.1274 0 52.5 0H48.5C25.8726 0 14.5589 0 7.52944 7.02944ZM17.3752 30.4169C17.9168 56.4169 30.9167 72.0418 53.7084 72.0418H55.0003V57.1668C63.3753 58.0001 69.7082 64.1252 72.2498 72.0418H84.0835C80.8335 60.2085 72.2914 53.6668 66.9581 51.1668C72.2914 48.0835 79.7915 40.5835 81.5831 30.4169H70.8328C68.4995 38.6669 61.5836 46.1668 55.0003 46.8751V30.4169H44.2499V59.2501C37.5833 57.5835 29.1668 49.5002 28.7918 30.4169H17.3752Z" fill="#9B3032"/>
</g>
<rect x="15" y="20" width="73" height="63" fill="#9B3032"/>
<path fill-rule="evenodd" clip-rule="evenodd" d="M20.3135 47.3857C37.1569 40.0473 48.3885 35.2093 54.0082 32.8719C70.0537 26.198 73.3878 25.0387 75.561 25.0004C76.0389 24.992 77.1076 25.1104 77.7999 25.6722C78.3844 26.1465 78.5452 26.7872 78.6222 27.2368C78.6991 27.6865 78.795 28.7109 78.7188 29.5114C77.8493 38.6474 74.0869 60.8181 72.1728 71.0507C71.3629 75.3804 69.7682 76.8322 68.2243 76.9742C64.869 77.283 62.3212 74.7568 59.0714 72.6266C53.9862 69.2932 51.1134 67.2181 46.1773 63.9653C40.4729 60.2062 44.1708 58.1401 47.4218 54.7635C48.2726 53.8798 63.056 40.4332 63.3421 39.2134C63.3779 39.0608 63.4111 38.4921 63.0733 38.1919C62.7354 37.8916 62.2368 37.9943 61.877 38.0759C61.367 38.1917 53.2433 43.5611 37.506 54.1843C35.2001 55.7677 33.1115 56.5391 31.2402 56.4987C29.1773 56.4541 25.2089 55.3323 22.2589 54.3733C18.6406 53.1972 15.7648 52.5753 16.0152 50.5778C16.1456 49.5374 17.5784 48.4733 20.3135 47.3857Z" fill="white"/>
</g>
<defs>
<clipPath id="clip0_72_49">
<rect width="101" height="100" fill="white"/>
</clipPath>
</defs>
</svg>
